<svg width="28" height="28" viewBox="0 0 28 28" fill="none" xmlns="http://www.w3.org/2000/svg">
<path d="M13.9985 7.06581C12.1589 7.06581 10.3948 7.79657 9.094 9.09732C7.79325 10.3981 7.06249 12.1623 7.06249 14.0018C7.06249 15.8414 7.79325 17.6056 9.094 18.9063C10.3948 20.2071 12.1589 20.9378 13.9985 20.9378C15.838 20.9378 17.6022 20.2071 18.903 18.9063C20.2037 17.6056 20.9345 15.8414 20.9345 14.0018C20.9345 12.1623 20.2037 10.3981 18.903 9.09732C17.6022 7.79657 15.838 7.06581 13.9985 7.06581ZM13.9985 18.5063C12.8034 18.5063 11.6573 18.0316 10.8123 17.1865C9.96723 16.3415 9.49249 15.1954 9.49249 14.0003C9.49249 12.8052 9.96723 11.6591 10.8123 10.8141C11.6573 9.96905 12.8034 9.49431 13.9985 9.49431C15.1936 9.49431 16.3397 9.96905 17.1847 10.8141C18.0298 11.6591 18.5045 12.8052 18.5045 14.0003C18.5045 15.1954 18.0298 16.3415 17.1847 17.1865C16.3397 18.0316 15.1936 18.5063 13.9985 18.5063Z" fill="black"/>
<path d="M21.209 8.42781C22.102 8.42781 22.826 7.70386 22.826 6.81081C22.826 5.91777 22.102 5.19381 21.209 5.19381C20.3159 5.19381 19.592 5.91777 19.592 6.81081C19.592 7.70386 20.3159 8.42781 21.209 8.42781Z" fill="black"/>
<path d="M26.7995 5.16681C26.4522 4.27008 25.9216 3.45574 25.2415 2.7759C24.5614 2.09607 23.7469 1.56572 22.85 1.21881C21.8005 0.824848 20.6918 0.611824 19.571 0.588812C18.1265 0.525812 17.669 0.507812 14.006 0.507812C10.343 0.507812 9.87349 0.507812 8.44099 0.588812C7.32107 0.610648 6.21313 0.823715 5.16499 1.21881C4.2679 1.56531 3.45314 2.09552 2.77299 2.77541C2.09285 3.45529 1.56233 4.26985 1.21549 5.16681C0.821448 6.21623 0.608913 7.32507 0.586991 8.44581C0.522491 9.88881 0.502991 10.3463 0.502991 14.0108C0.502991 17.6738 0.502991 18.1403 0.586991 19.5758C0.609491 20.6978 0.820991 21.8048 1.21549 22.8563C1.56331 23.753 2.09433 24.5672 2.77464 25.247C3.45495 25.9268 4.26959 26.4572 5.16649 26.8043C6.21264 27.2141 7.32105 27.4424 8.44399 27.4793C9.88849 27.5423 10.346 27.5618 14.009 27.5618C17.672 27.5618 18.1415 27.5618 19.574 27.4793C20.6946 27.4565 21.8033 27.244 22.853 26.8508C23.7496 26.5031 24.5639 25.9723 25.2439 25.2923C25.924 24.6123 26.4548 23.7979 26.8025 22.9013C27.197 21.8513 27.4085 20.7443 27.431 19.6223C27.4955 18.1793 27.515 17.7218 27.515 14.0573C27.515 10.3928 27.515 9.92781 27.431 8.49231C27.4135 7.35572 27.1999 6.23069 26.7995 5.16681ZM24.9725 19.4648C24.9628 20.3293 24.805 21.1857 24.506 21.9968C24.2807 22.5801 23.9359 23.1098 23.4936 23.5518C23.0513 23.9938 22.5214 24.3384 21.938 24.5633C21.1358 24.861 20.2885 25.0188 19.433 25.0298C18.008 25.0958 17.606 25.1123 13.952 25.1123C10.295 25.1123 9.92149 25.1123 8.46949 25.0298C7.61438 25.0193 6.76748 24.8615 5.96599 24.5633C5.38052 24.3398 4.84849 23.9959 4.40433 23.5538C3.96016 23.1117 3.61374 22.5812 3.38749 21.9968C3.09266 21.1944 2.93496 20.3481 2.92099 19.4933C2.85649 18.0683 2.84149 17.6663 2.84149 14.0123C2.84149 10.3568 2.84149 9.98331 2.92099 8.52981C2.93069 7.66585 3.08847 6.80994 3.38749 5.99931C3.84499 4.81581 4.78249 3.88431 5.96599 3.43131C6.76788 3.13452 7.61453 2.97676 8.46949 2.96481C9.89599 2.90031 10.2965 2.88231 13.952 2.88231C17.6075 2.88231 17.9825 2.88231 19.433 2.96481C20.2886 2.97511 21.136 3.13292 21.938 3.43131C22.5214 3.65672 23.0512 4.00162 23.4934 4.44386C23.9357 4.8861 24.2806 5.41592 24.506 5.99931C24.8008 6.80174 24.9585 7.64805 24.9725 8.50281C25.037 9.92931 25.0535 10.3298 25.0535 13.9853C25.0535 17.6393 25.0535 18.0323 24.989 19.4663H24.9725V19.4648Z" fill="black"/>
</svg>
